<?xml version="1.0" encoding="UTF-8" standalone="no"?>
<!-- Created with Inkscape (http://www.inkscape.org/) -->

<svg
   xmlns:dc="http://purl.org/dc/elements/1.1/"
   xmlns:cc="http://creativecommons.org/ns#"
   xmlns:rdf="http://www.w3.org/1999/02/22-rdf-syntax-ns#"
   xmlns:svg="http://www.w3.org/2000/svg"
   xmlns="http://www.w3.org/2000/svg"
   xmlns:sodipodi="http://sodipodi.sourceforge.net/DTD/sodipodi-0.dtd"
   xmlns:inkscape="http://www.inkscape.org/namespaces/inkscape"
   width="299.40945"
   height="177.16534"
   id="svg2"
   version="1.1"
   inkscape:version="0.48.3.1 r9886"
   sodipodi:docname="plot.svg">
  <defs
     id="defs4">
    <inkscape:perspective
       sodipodi:type="inkscape:persp3d"
       inkscape:vp_x="0 : 186.02362 : 1"
       inkscape:vp_y="0 : 1000 : 0"
       inkscape:vp_z="524.40942 : 186.02362 : 1"
       inkscape:persp3d-origin="262.20471 : 124.01575 : 1"
       id="perspective3009" />
  </defs>
  <sodipodi:namedview
     id="base"
     pagecolor="#ffffff"
     bordercolor="#666666"
     borderopacity="1.0"
     inkscape:pageopacity="0.0"
     inkscape:pageshadow="2"
     inkscape:zoom="1.979899"
     inkscape:cx="350"
     inkscape:cy="96.158464"
     inkscape:document-units="px"
     inkscape:current-layer="layer1"
     showgrid="false"
     inkscape:window-width="1600"
     inkscape:window-height="824"
     inkscape:window-x="0"
     inkscape:window-y="24"
     inkscape:window-maximized="1"
     units="cm" />
  <metadata
     id="metadata7">
    <rdf:RDF>
      <cc:Work
         rdf:about="">
        <dc:format>image/svg+xml</dc:format>
        <dc:type
           rdf:resource="http://purl.org/dc/dcmitype/StillImage" />
        <dc:title></dc:title>
      </cc:Work>
    </rdf:RDF>
  </metadata>
  <g
     inkscape:label="Ebene 1"
     inkscape:groupmode="layer"
     id="layer1"
     transform="translate(0,-875.19702)">
    <path
       style="fill:none;stroke:#000000;stroke-width:0.53791738px;stroke-linecap:butt;stroke-linejoin:miter;stroke-opacity:1"
       d="m 9.8704836,885.45594 0,142.95246 281.2844864,0"
       id="path2985"
       inkscape:connector-curvature="0" />
    <path
       style="fill:none;stroke:#000000;stroke-width:0.53791738px;stroke-linecap:butt;stroke-linejoin:miter;stroke-opacity:1"
       d="m 20.334021,1008.2608 c 3.190804,-3.6234 5.997333,-7.4313 9.232533,-11.0333 1.600291,-1.78175 3.376082,-3.46714 4.924016,-5.27677 1.737179,-2.03087 3.210173,-4.1933 4.924018,-6.23618 1.775266,-2.11609 3.693013,-4.15746 5.53952,-6.23619 1.846505,-2.07871 3.693012,-4.15744 5.539519,-6.23617 1.846506,-2.07873 3.41919,-4.32273 5.539517,-6.23618 1.804156,-1.62813 4.203233,-2.79619 6.155025,-4.31736 3.823184,-2.97969 6.024845,-5.65503 9.848034,-8.63471 4.749954,-3.70199 5.992489,-3.93087 11.079036,-7.1956 1.683552,-1.08056 3.191555,-2.32541 4.924019,-3.35795 2.540731,-1.51424 7.677696,-3.88098 10.463539,-5.27675 2.617243,-1.31131 4.435763,-2.52182 7.386033,-3.35795 0.98316,-0.27864 2.08503,-0.22187 3.07751,-0.47971 0.87044,-0.22613 1.59155,-0.73328 2.462,-0.95942 2.77724,-0.7215 5.75035,-0.4797 8.61704,-0.4797 0.82066,0 1.64133,0 2.46201,0 0.82066,0 1.74946,-0.31734 2.462,0 0.89068,0.39667 1.12113,1.35348 1.8465,1.91883 0.92894,0.72398 2.14858,1.19483 3.07751,1.91882 1.13308,0.88308 1.99473,1.95763 3.07751,2.87824 1.17638,1.00018 2.5122,1.88124 3.69302,2.87823 1.283,1.08327 2.41484,2.27122 3.69301,3.35795 0.98031,0.83348 2.22422,1.48411 3.07751,2.39854 0.80951,0.86748 1.194,1.93378 1.84651,2.87823 0.78421,1.13508 1.59509,2.26001 2.46201,3.35794 6.75908,8.56027 -2.05046,-3.27635 4.92401,6.23619 3.45234,4.70864 1.15983,1.98455 4.92402,5.75647 2.42542,2.43039 3.0508,3.34752 6.77053,4.79707 0.5803,0.22612 1.20653,0.39656 1.8465,0.4797 0.60713,0.0789 1.23101,0 1.84651,0 0.82067,0 1.64134,0 2.46201,0 1.43617,0 2.87234,0 4.30851,0 0.41034,0 0.90274,0.19188 1.23101,0 0.59179,-0.34592 0.86399,-0.93855 1.231,-1.43911 1.96259,-2.6768 0.75036,-1.1849 1.84651,-4.31737 0.34142,-0.97567 0.82066,-1.91882 1.23101,-2.87823 0.20516,-1.11932 0.24169,-2.26545 0.6155,-3.35795 0.45166,-1.32007 1.39483,-2.51757 1.8465,-3.83765 0.37381,-1.0925 0.15674,-2.28528 0.61551,-3.35795 0.47485,-1.11027 2.75746,-3.34516 3.69301,-4.31734 0.6155,-0.63962 1.12113,-1.35349 1.8465,-1.91884 0.84573,-0.65913 2.03333,-0.4797 3.07751,-0.4797 0.41033,0 0.82864,-0.0627 1.23101,0 2.71464,0.42314 5.02643,1.87514 7.38603,2.87824 1.20824,0.51364 2.48476,0.92547 3.69301,1.43912 1.05024,0.44647 1.9843,1.06043 3.07751,1.43911 1.83273,0.63484 2.99898,0.47971 4.92402,0.47971 0.6155,0 1.231,0 1.84651,0 1.11018,0 2.18674,0.21453 3.07751,-0.47971 1.30794,-1.01937 1.7567,-2.60084 2.46201,-3.83764 0.37264,-0.65347 0.85835,-1.26536 1.231,-1.91883 0.44872,-0.78688 0.73689,-1.62834 1.231,-2.39854 0.0384,-0.0597 3.67549,-4.76429 3.69302,-4.79705 1.59487,-2.98322 1.05344,-3.62547 1.8465,-6.71589 0.53109,-2.06959 1.70395,-5.12777 2.462,-7.1956 0.93393,-2.54754 1.32646,-3.80237 2.46201,-6.23618 0.37759,-0.80926 0.69444,-1.64579 1.23102,-2.39853 1.53672,-2.15583 1.82715,-1.6129 3.693,-3.35794 0.47357,-0.44291 0.70793,-1.03145 1.23101,-1.43912 0.52308,-0.40768 1.27822,-0.59032 1.8465,-0.95942 4.07734,-3.17777 0.0632,-0.35262 3.07751,-1.91882 0.48285,-0.25088 0.68049,-0.81639 1.231,-0.95941 0.38929,-0.10108 0.83293,0.0775 1.23101,0 0.44507,-0.0867 0.79578,-0.36664 1.231,-0.4797 0.58392,-0.15171 1.24939,0.11634 1.84651,0 0.44507,-0.0867 0.78115,-0.40959 1.23101,-0.47971 0.60355,-0.0941 1.231,0 1.8465,0 1.64134,0 3.28269,0 4.92402,0 0.32882,0 2.90136,-0.0686 3.07751,0 0.51904,0.20225 0.74817,0.70853 1.23101,0.95941 0.38171,0.19834 0.9066,0.22687 1.231,0.47971 0.14508,0.11306 -0.1138,0.34665 0,0.4797 0.32189,0.37631 0.90911,0.5831 1.231,0.95941 0.11382,0.13305 -0.0649,0.32801 0,0.47971 0.20518,0.3198 0.41034,0.63961 0.61551,0.95941 0,0.15991 -0.0649,0.32801 0,0.47971 0.74379,1.73907 0.29203,0.3414 1.231,1.43912 2.07294,2.42338 0.005,0.0112 0.6155,1.43911 0.14509,0.33921 0.47044,0.62022 0.61551,0.95941 0.0649,0.15171 -0.14507,0.36665 0,0.47972 0.14508,0.11306 0.41033,0 0.6155,0"
       id="path2987"
       inkscape:connector-curvature="0" />
    <path
       style="fill:#00ff00;stroke:#000000;stroke-width:0.53791738px;stroke-linecap:butt;stroke-linejoin:miter;stroke-opacity:1"
       d="m 24.642535,928.6295 c 5.228275,1.05412 10.650671,1.42806 16.003058,1.91883 1.845144,0.16918 3.684855,0.39468 5.539518,0.47971 1.638507,0.0751 3.285876,-0.0798 4.924018,0 2.464944,0.12006 6.082015,0.63012 8.617031,0.95941 5.357041,0.69586 2.02594,0.0524 6.770526,1.43911 0.607482,0.17755 1.306672,0.19923 1.846501,0.47971 0.724264,0.37632 1.138191,1.04481 1.846508,1.43912 0.746632,0.41565 1.765366,0.49403 2.462009,0.95941 0.778877,0.52032 1.178899,1.3118 1.846508,1.91884 0.566482,0.51508 1.280021,0.92402 1.846508,1.43911 3.218992,2.92693 0.652547,0.81372 3.07751,3.83764 0.543692,0.67799 1.302815,1.24084 1.846507,1.91883 0.486289,0.60641 0.775775,1.29794 1.231001,1.91882 0.734031,1.00115 1.800365,1.84691 2.462009,2.87825 0.29015,0.45227 0.281699,1.00552 0.615501,1.43911 0.298565,0.38783 0.820669,0.63962 1.23101,0.95941 0.410326,0.31981 0.733389,0.72673 1.231,0.95942 0.556341,0.26015 1.244116,0.29191 1.84651,0.47971 0.425955,0.13279 0.781142,0.40958 1.230999,0.4797 0.649965,0.10129 3.418383,0 4.30852,0 0.933507,0 4.097627,0.10735 4.924023,0 1.27994,-0.16625 2.44534,-0.68158 3.69301,-0.95941 0.81338,-0.18112 1.66994,-0.24821 2.46201,-0.47971 0.85911,-0.25108 1.64133,-0.63961 2.46201,-0.95941 0.82066,-0.31981 1.64133,-0.63961 2.462,-0.95941 0.82067,-0.3198 1.62355,-0.66898 2.46201,-0.95941 1.00964,-0.34973 2.11168,-0.54123 3.0775,-0.95941 0.89675,-0.38828 1.60847,-0.99564 2.46201,-1.43912 0.99541,-0.51719 2.08212,-0.92193 3.07753,-1.43913 0.85354,-0.44349 1.56526,-1.05084 2.462,-1.43911 0.96582,-0.41819 2.07168,-0.60309 3.07751,-0.95941 1.25294,-0.44387 2.44007,-0.99526 3.69301,-1.43913 2.01165,-0.71264 4.10335,-1.27922 6.15502,-1.91882 1.02584,-0.31981 2.01925,-0.71197 3.07751,-0.95941 1.00203,-0.23429 2.05168,-0.31981 3.07752,-0.4797 1.02583,-0.15991 2.03775,-0.38968 3.0775,-0.47971 1.4274,-0.12361 2.87235,0 4.30852,0 1.64134,0 3.28269,0 4.92402,0 0.82068,0 1.64134,0 2.46201,0 0.41033,0 0.85001,-0.11877 1.231,0 1.07973,0.3366 3.07794,1.7274 3.69302,2.39853 0.53329,0.5819 0.6977,1.33692 1.231,1.91882 0.50594,0.55205 1.28925,0.91795 1.8465,1.43912 1.37213,1.28328 2.34681,3.00587 3.69302,4.31736 0.36251,0.35316 0.86849,0.60624 1.231,0.95941 0.46211,0.4502 0.76889,0.98892 1.23101,1.43912 0.36251,0.35317 0.9091,0.5831 1.231,0.95941 0.50895,0.595 0.6977,1.33692 1.23101,1.91883 0.50594,0.55204 1.28925,0.91795 1.8465,1.43911 0.47357,0.44291 0.75743,0.99622 1.23101,1.43913 0.92875,0.8686 2.20705,1.49399 3.07751,2.39853 0.27526,0.28604 0.24849,0.74487 0.6155,0.95941 0.51903,0.30339 1.29017,0.21955 1.84651,0.47971 0.9952,0.46538 1.4668,1.45343 2.462,1.91882 0.55635,0.26015 1.23101,0.3198 1.84651,0.47971 0.6155,0.1599 1.20654,0.39657 1.84651,0.4797 1.01187,0.13144 2.05167,0 3.07751,0 0.6155,0 1.27502,0.17816 1.84651,0 1.64161,-0.51177 1.10133,-1.43058 1.84651,-2.39853 0.29855,-0.38782 0.82066,-0.63961 1.231,-0.95941 0.82066,-0.63961 1.64133,-1.27922 2.46201,-1.91883 0.20516,-0.15989 0.45455,-0.29155 0.6155,-0.4797 0.72174,-0.84375 0.73053,-1.4234 1.231,-2.39854 0.17039,-0.33197 0.44512,-0.62744 0.61551,-0.95941 0.24095,-0.46948 0.35992,-0.97434 0.6155,-1.43912 0.72287,-1.31457 1.8817,-2.48083 2.462,-3.83764 1.72981,-4.04451 -0.72102,-0.79494 1.84651,-4.79707 0.53501,-0.83395 1.26553,-1.58349 1.84651,-2.39853 0.44559,-0.62512 0.82067,-1.27922 1.231,-1.91882 0.41033,-0.63961 0.89024,-1.25487 1.23101,-1.91882 0.48191,-0.93899 0.6507,-1.97371 1.231,-2.87825 0.83316,-1.29867 2.24784,-2.06469 3.07752,-3.35794 0.4941,-0.77019 0.69443,-1.64579 1.231,-2.39853 0.0119,-0.0166 3.65995,-3.79901 3.69301,-3.83765 0.6636,-0.77579 1.12871,-1.65263 1.84651,-2.39854 0.52227,-0.54272 1.41464,-0.85009 1.8465,-1.43911 0.4197,-0.57243 0.1958,-1.3464 0.61551,-1.91883 0.43185,-0.58903 1.231,-0.95941 1.8465,-1.43912 0.61549,-0.4797 1.23101,-0.95941 1.84651,-1.43911 1.23101,-0.95942 2.35561,-2.00963 3.69302,-2.87825 0.56828,-0.36908 1.23099,-0.6396 1.84649,-0.95941 0.39715,-0.20634 2.32046,-1.29161 3.07751,-1.43911 0.39809,-0.0776 0.82864,0.0627 1.23101,0 0.6362,-0.0992 1.21031,-0.38054 1.8465,-0.47971 0.40238,-0.0627 0.82068,0 1.23101,0 1.22391,0 2.46912,0 3.69301,0 2.66719,0 5.33435,0 8.00153,0 1.23101,0 2.46201,0 3.69301,0 0.20517,0 0.52375,-0.14302 0.61551,0 0.18351,0.28604 -0.12976,0.65602 0,0.95941 0.40827,0.9546 0.57446,0.22387 1.231,0.47971 0.60567,0.23602 1.85634,1.6828 2.46201,1.91882 0.18351,0.0715 0.41034,0 0.6155,0"
       id="path2991"
       inkscape:connector-curvature="0" />
    <text
       xml:space="preserve"
       style="font-size:16px;font-style:normal;font-variant:normal;font-weight:normal;font-stretch:normal;text-align:center;line-height:125%;letter-spacing:0px;word-spacing:0px;writing-mode:lr-tb;text-anchor:middle;fill:#000000;fill-opacity:1;stroke:none;font-family:Webdings;-inkscape-font-specification:Webdings"
       x="301.02545"
       y="71.021782"
       id="text3001"
       sodipodi:linespacing="125%"
       transform="translate(0,680.31491)"><tspan
         sodipodi:role="line"
         id="tspan3003"
         x="301.02545"
         y="71.021782" /></text>
    <text
       xml:space="preserve"
       style="font-size:16px;font-style:normal;font-variant:normal;font-weight:normal;font-stretch:normal;text-align:center;line-height:125%;letter-spacing:0px;word-spacing:0px;writing-mode:lr-tb;text-anchor:middle;fill:#000000;fill-opacity:1;stroke:none;font-family:Webdings;-inkscape-font-specification:Webdings"
       x="413.1524"
       y="166.98627"
       id="text3005"
       sodipodi:linespacing="125%"
       transform="translate(0,680.31491)"><tspan
         sodipodi:role="line"
         id="tspan3007"
         x="413.1524"
         y="166.98627" /></text>
    <text
       xml:space="preserve"
       style="font-size:20.68477821px;font-style:normal;font-variant:normal;font-weight:normal;font-stretch:normal;text-align:center;line-height:125%;letter-spacing:0px;word-spacing:0px;writing-mode:lr-tb;text-anchor:middle;fill:#000000;fill-opacity:1;stroke:none;font-family:Arial;-inkscape-font-specification:Arial"
       x="255.92838"
       y="947.48492"
       id="text3011"
       sodipodi:linespacing="125%"
       transform="scale(0.97525079,1.0253773)"
       class="body"><tspan
         sodipodi:role="line"
         id="tspan3015"
         x="255.92838"
         y="947.48492">x²=ä</tspan></text>
    <text
       xml:space="preserve"
       style="font-size:9px;font-style:normal;font-variant:normal;font-weight:normal;font-stretch:normal;text-align:center;line-height:125%;letter-spacing:0px;word-spacing:0px;writing-mode:lr;text-anchor:middle;fill:#000000;fill-opacity:1;stroke:none;font-family:Arial;-inkscape-font-specification:Arial"
       x="157.07872"
       y="166.55875"
       id="text3074"
       sodipodi:linespacing="125%"
       transform="translate(0,875.19702)"><tspan
         sodipodi:role="line"
         id="tspan3076"
         x="157.07872"
         y="166.55875">An Example Plot</tspan><tspan
         sodipodi:role="line"
         x="157.07872"
         y="186.55875"
         id="tspan3078" /></text>
  </g>
</svg>
